<svg xmlns="http://www.w3.org/2000/svg" id="Layer_1" viewBox="0 0 851 372"><style>.st0{fill:#c02f61}.st1{fill:#807f7e}</style><path d="M14.7 140.7V0h9v140.7h-9zM151.4 140.7l-82-124.8v124.8h-9V0h8.2l82.2 124.6V0h8.8v140.7h-8.2zM235.5 140.7V8h-54.3V0h117.6v8h-54.3v132.6h-9zM320.5 140.7V0h9v140.7h-9zM474.7 140.7V21.9l-46 118.8h-7.4l-46-118.6v118.6h-9V0h8.4L425 128 475.3 0h8.4v140.7h-9zM611.4 140.7l-15.3-41.6H532l-15.3 41.6h-9.4L559.2 0h9.8l51.8 140.7h-9.4zm-47.2-129L535.1 91H593l-28.8-79.3zM664.4 140.7V8h-54.3V0h117.6v8h-54.3v132.6h-9zM749.3 140.7V0h90.8v8h-81.8v59.5H826v8h-67.7v57.1h81.8v8h-90.8zM49.5 268C22.2 268 0 246.8 0 221s22.2-46.9 49.5-46.9c27.1 0 49.3 21.2 49.3 46.9s-22.3 47-49.3 47zm0-86.8c-21 0-29.5 21.9-29.5 39.8s8.4 39.8 29.5 39.8c20.9 0 29.5-21.9 29.5-39.8s-8.7-39.8-29.5-39.8zM188.8 263.8c-.9-3.6-1.9-7.1-3.8-8.4-7.6 7.8-17.2 12.6-27.5 12.6-25 0-45.5-21.2-45.5-46.9s20.4-46.9 45.5-46.9c10.4 0 20 4.6 27.5 12.6 1.9-1.5 3-4.7 3.8-8.4h4.1V211h-4.3c-4-19.2-16-29.6-30.6-29.6-20.3 0-26.1 21.5-26.1 39.8 0 18.4 5.8 39.8 26.1 39.8 14.7 0 26.6-10.7 30.6-29.6h4.3V264h-4.1zM291.2 263.8c-.9-3.6-1.9-7.1-3.8-8.4-7.6 7.8-17.2 12.6-27.5 12.6-25 0-45.5-21.2-45.5-46.9s20.4-46.9 45.5-46.9c10.4 0 20 4.6 27.5 12.6 1.9-1.5 3-4.7 3.8-8.4h4.1V211H291c-4-19.2-16-29.6-30.6-29.6-20.3 0-26.1 21.5-26.1 39.8 0 18.4 5.8 39.8 26.1 39.8 14.7 0 26.6-10.7 30.6-29.6h4.3V264h-4.1zM337.3 249.9c-3.4 8-1.2 11.3 11.1 11.3v4.3h-35.8v-4.3c10.2 0 13.6-2.5 18.2-13l32.1-74h3.1l32.3 74c4.1 9.5 6.2 13 18.1 13v4.3h-48.3v-4.3c13 0 14.5-3.4 11.1-11.3l-6.2-14.1h-29.6l-6.1 14.1zm21-48.6l-12 27.8h23.8l-11.8-27.8zM434.1 268h-4.3v-32.6h4.4c2.8 15.8 15.1 25.9 27.2 25.9 8.6 0 14.8-4.9 14.8-14.7 0-5.3-4-11.4-11-15l-14.1-7.4c-12.6-6.4-20.1-13.3-20.1-28 0-12.1 11.4-22.2 25.8-22.2 8.7 0 13.6 2.8 18.1 6.1 1.8-1.5 3.6-3.7 4.3-6.8h4.1v32.6H479c-1-11.8-5.8-25.3-21.3-25.3-6.1 0-12 4.4-12 11.8 0 4.4 4 11.1 11.8 15.1l14.2 7.3c10.5 5.5 19.1 14.5 19.1 26.2 0 16.1-14.2 26.9-29.5 26.9-11.3 0-18.4-5.9-23.1-7-1.6 1.6-3.4 3.8-4.1 7.1zM503.5 265.5v-4.3c12.3 0 14.1-2.5 14.1-17.3v-45.6c0-14.8-1.8-17.3-14.1-17.3v-4.3h46.8v4.3c-12.3 0-14.2 2.5-14.2 17.3v45.6c0 14.8 1.9 17.3 14.2 17.3v4.3h-46.8zM611.8 268c-27.2 0-49.5-21.2-49.5-46.9s22.2-46.9 49.5-46.9c27.1 0 49.3 21.2 49.3 46.9S638.9 268 611.8 268zm0-86.8c-21 0-29.5 21.9-29.5 39.8s8.4 39.8 29.5 39.8c20.9 0 29.5-21.9 29.5-39.8s-8.6-39.8-29.5-39.8zM752.1 198.2c0-14.8-1.9-17.3-14.2-17.3v-4.3H773v4.3c-12.4 0-14.2 2.5-14.2 17.3V268h-3.7l-61.3-73.1v49c0 14.8 1.9 17.3 14.2 17.3v4.3h-34.9v-4.3c12.3 0 14.1-2.5 14.1-17.3v-45.6c0-14.8-1.8-17.3-14.1-17.3v-4.3h29.6l49.5 58.9v-37.4zM791.4 268h-4.3v-32.6h4.4c2.8 15.8 15.1 25.9 27.2 25.9 8.6 0 14.8-4.9 14.8-14.7 0-5.3-4-11.4-11-15l-14.1-7.4c-12.6-6.4-20.1-13.3-20.1-28 0-12.1 11.4-22.2 25.8-22.2 8.7 0 13.6 2.8 18.1 6.1 1.8-1.5 3.6-3.7 4.3-6.8h4.1v32.6h-4.3c-1-11.8-5.8-25.3-21.3-25.3-6.1 0-12 4.4-12 11.8 0 4.4 4 11.1 11.8 15.1l14.2 7.3c10.5 5.5 19.1 14.5 19.1 26.2 0 16.1-14.2 26.9-29.5 26.9-11.3 0-18.4-5.9-23.1-7-1.6 1.6-3.4 3.8-4.1 7.1z" class="st0"/><g><path d="M31.6 352.3s-4 4-10.3 4c-9.4 0-13.4-6.9-13.4-15.1 0-8.5 4.6-14.8 13.4-14.8 5.6 0 8.8 2.6 8.8 2.6l-1 2s-2.8-2.5-7.7-2.5c-7.1 0-11 5-11 12.6 0 6.7 3.2 12.9 10.9 12.9 5.6 0 9.2-3.8 9.2-3.8l1.1 2.1zM37.9 342.3c.4 6.4 3.6 11.8 10.9 11.8 5.6 0 9.2-3.8 9.2-3.8l1 1.7s-4 4.2-10.3 4.2c-9.4 0-13.4-6.9-13.4-15.1 0-8.5 4.4-14.8 12.8-14.8 7.4 0 11.8 5.3 11.8 12.8 0 1.9-.4 3.1-.4 3.1H37.9zm19.6-2.1l.1-1c.4-7-3.7-10.6-9.4-10.6-6.4 0-10 4.5-10.3 11.6h19.6zM76.8 354.2s-2.2 1.6-5.7 1.6c-3.1 0-4.4-1.4-4.4-5.1v-39.6l2.5-.7v40.2c0 2.1.8 3.2 2.6 3.2s4.5-1 4.5-1l.5 1.4zM81.7 342.3c.4 6.4 3.6 11.8 10.9 11.8 5.6 0 9.2-3.8 9.2-3.8l1 1.7s-4 4.2-10.3 4.2c-9.4 0-13.4-6.9-13.4-15.1 0-8.5 4.4-14.8 12.8-14.8 7.4 0 11.8 5.3 11.8 12.8 0 1.9-.4 3.1-.4 3.1H81.7zm19.6-2.1l.1-1c.4-7-3.7-10.6-9.4-10.6-6.4 0-10 4.5-10.3 11.6h19.6zM110.5 311.1l2.5-.7V331c1.7-1.7 5-4.6 9.8-4.6 8.5 0 12.1 6.9 12.1 15.1 0 8.6-4.9 14.7-13.6 14.7-6.6 0-10.7-3.5-10.7-3.5v-41.6zm2.5 40.8c1.2.7 4.1 2.2 8.3 2.2 7 0 11-4.7 11-12.5 0-7.3-3.1-13-9.8-13-4.8 0-8.3 3.2-9.5 4.7v18.6zM141.9 355.4v-27.7l2.5-.7v6.5c1-1.8 4.3-7 9.1-7 2.3 0 3.7.9 3.7.9l-.8 2s-1.2-.7-3.2-.7c-4.4 0-7.6 5.1-8.8 7.2v19.5h-2.5zM188 354.3s-1.9 1.5-4.7 1.5c-2.1 0-3.1-1.2-3.1-3v-1.3c-1.4 1.7-4.8 4.8-10.5 4.8-5.2 0-8.9-2.3-8.9-6.8 0-4.7 3.7-7.7 13.3-7.7 2.7 0 5 .4 6.1.7v-7.1c0-4.6-2.6-6.7-8.2-6.7-5.2 0-8.8 1.7-8.8 1.7l-.7-2s4-1.9 9.9-1.9c6.7 0 10.3 2.7 10.3 8.5v17.2c0 1.1.3 1.6 1.4 1.6 1.3 0 3.3-.9 3.3-.9l.6 1.4zm-7.9-9.9c-1-.2-3.1-.6-6-.6-8 0-10.9 2.4-10.9 5.6 0 3.3 2.9 4.7 6.8 4.7 5.8 0 9.3-4 10.1-4.9v-4.8zM207.2 354.1s-2.2 2.2-6.7 2.2c-4.1 0-7-2.6-7-8.6v-18.3h-4.7l.7-2.2h4.1v-7.5l2.5-.9v8.4h9.3v2.2h-9.3v18.4c0 4.1 1.9 6.2 4.8 6.2 3.8 0 5.5-1.8 5.5-1.8l.8 1.9zM213.8 321.2c-1.1 0-1.9-1-1.9-2.1s.8-2 1.9-2c1.1 0 1.9.9 1.9 2s-.9 2.1-1.9 2.1zm-1.3 34.2v-28.1h2.5v28.1h-2.5zM250.9 354.3s-1.9 1.5-4.6 1.5c-2.5 0-3.2-1.4-3.2-3.6v-15.9c0-5.3-2.1-7.6-6.5-7.6-5.4 0-9.3 3.8-10.6 5.2v21.4h-2.5v-27.7l2.5-.7v4.8c1.1-1.2 5-5.3 11-5.3 5.7 0 8.6 3.1 8.6 9.7v16c0 1.1.4 1.6 1.4 1.6 1.4 0 3.4-.9 3.4-.9l.5 1.5zM264.7 348.5c-.4.1-5.8.2-5.8 3 0 2.5 4.9 2.6 7.3 2.6 10.4 0 12.7 4.3 12.7 8.6 0 5.5-3.9 9.3-12.6 9.3-8.3 0-12.7-3.5-12.7-8.7 0-5.3 4.6-7.3 6.7-7.9-2-.6-3.9-1.7-3.9-3.8 0-2.1 2.1-3.3 4.1-3.9-4.4-1.7-6.8-5.3-6.8-10.3 0-5.6 3.7-11 12.5-11 1.9 0 3.4.3 4.9.7 3.8-.1 5.6-4 5.6-10h2.5c0 5.6-1.9 9.8-5.6 11.2 3.2 2 4.7 5.5 4.7 9.1 0 6.6-4.2 11.1-11.9 11.1-.7.1-1.3.1-1.7 0zm-8.6 14.6c0 4.3 3.5 6.7 10.1 6.7 7 0 10.1-2.6 10.1-7.1 0-3.1-1.6-6.3-9.7-6.4-.4 0-1.9 0-3.5-.1-1.7.5-7 2.1-7 6.9zm10.2-34.5c-7.1 0-10 4.5-10 8.8 0 5.7 3.5 8.9 10.1 8.9 6.1 0 9.5-3.2 9.5-8.9 0-4.3-2.8-8.8-9.6-8.8zM311.3 354.2s-2.2 1.6-5.7 1.6c-3.1 0-4.4-1.4-4.4-5.1v-39.6l2.5-.7v40.2c0 2.1.8 3.2 2.6 3.2s4.5-1 4.5-1l.5 1.4zM317.6 321.2c-1.1 0-1.9-1-1.9-2.1s.8-2 1.9-2c1.1 0 1.9.9 1.9 2s-.8 2.1-1.9 2.1zm-1.3 34.2v-28.1h2.5v28.1h-2.5zM329.3 355.4v-25.9h-4.7l.7-2.2h4.1V320c0-6.8 3.4-9.7 8.2-9.7 3.7 0 5.3 1.4 5.3 1.4l-.9 1.7s-1.6-.9-4.2-.9c-3.6 0-5.9 2.5-5.9 7.4v7.4h9.3v2.2h-9.3v25.9h-2.6zM346.4 342.3c.4 6.4 3.6 11.8 10.9 11.8 5.6 0 9.2-3.8 9.2-3.8l1 1.7s-4 4.2-10.3 4.2c-9.4 0-13.4-6.9-13.4-15.1 0-8.5 4.4-14.8 12.8-14.8 7.4 0 11.8 5.3 11.8 12.8 0 1.9-.4 3.1-.4 3.1h-21.6zm19.6-2.1l.1-1c.4-7-3.7-10.6-9.4-10.6-6.4 0-10 4.5-10.3 11.6H366zM373.1 324.2s2.8-2 2.8-7.5v-.4c-.2.1-.5.1-.6.1-1.5 0-2.6-1.2-2.6-2.8 0-1.6 1.1-2.8 2.6-2.8 1.7 0 2.8 1.3 2.8 3.6 0 9.1-4.3 10.9-4.3 10.9l-.7-1.1zM401.3 331.1s-3.2-2.5-9-2.5c-5.5 0-8.5 2.5-8.5 6.1 0 4 4.1 4.9 8.5 5.6 4.9.8 10.4 2.2 10.4 8 0 5-3.9 8-10.7 8-8 0-11.3-4-11.3-4l1-2s3.4 3.8 10.3 3.8c5.2 0 8.3-2.3 8.3-5.9 0-3.8-3.8-4.9-8.1-5.6-5-.9-10.7-1.9-10.7-8 0-4.1 3.1-8.2 11-8.2 6.7 0 10.1 2.7 10.1 2.7l-1.3 2zM444.9 331.1s-3.2-2.5-9-2.5c-5.5 0-8.5 2.5-8.5 6.1 0 4 4.1 4.9 8.5 5.6 4.9.8 10.4 2.2 10.4 8 0 5-3.9 8-10.7 8-8 0-11.3-4-11.3-4l1-2s3.4 3.8 10.3 3.8c5.2 0 8.3-2.3 8.3-5.9 0-3.8-3.8-4.9-8.1-5.6-5-.9-10.7-1.9-10.7-8 0-4.1 3.1-8.2 11-8.2 6.7 0 10.1 2.7 10.1 2.7l-1.3 2zM452.6 371.2v-43.5l2.5-.7v4c1.6-1.7 4.8-4.5 9.8-4.5 8.5 0 12.1 6.8 12.1 15.1 0 8.8-4.9 14.7-13.4 14.7-4 0-6.8-1.3-8.5-2.3v17.2h-2.5zm2.6-19.5c1.1.8 4.1 2.5 8.5 2.5 7 0 10.9-4.7 10.9-12.5 0-7.3-2.8-13-9.9-13-4.8 0-8.2 3.1-9.5 4.5v18.5zM485.3 342.3c.4 6.4 3.6 11.8 10.9 11.8 5.6 0 9.2-3.8 9.2-3.8l1 1.7s-4 4.2-10.3 4.2c-9.4 0-13.4-6.9-13.4-15.1 0-8.5 4.4-14.8 12.8-14.8 7.4 0 11.8 5.3 11.8 12.8 0 1.9-.4 3.1-.4 3.1h-21.6zm19.6-2.1l.1-1c.4-7-3.7-10.6-9.4-10.6-6.4 0-10 4.5-10.3 11.6h19.6zM536.7 352.3s-4 4-10.3 4c-9.4 0-13.4-6.9-13.4-15.1 0-8.5 4.6-14.8 13.4-14.8 5.6 0 8.8 2.6 8.8 2.6l-1 2s-2.8-2.5-7.7-2.5c-7.1 0-11 5-11 12.6 0 6.7 3.2 12.9 10.9 12.9 5.6 0 9.2-3.8 9.2-3.8l1.1 2.1zM544 321.2c-1.1 0-1.9-1-1.9-2.1s.8-2 1.9-2c1.1 0 1.9.9 1.9 2s-.8 2.1-1.9 2.1zm-1.3 34.2v-28.1h2.5v28.1h-2.5zM578.5 354.3s-1.9 1.5-4.7 1.5c-2.1 0-3.1-1.2-3.1-3v-1.3c-1.4 1.7-4.8 4.8-10.5 4.8-5.2 0-8.9-2.3-8.9-6.8 0-4.7 3.7-7.7 13.3-7.7 2.7 0 5 .4 6.1.7v-7.1c0-4.6-2.6-6.7-8.2-6.7-5.2 0-8.8 1.7-8.8 1.7l-.7-2s4-1.9 9.9-1.9c6.7 0 10.3 2.7 10.3 8.5v17.2c0 1.1.3 1.6 1.4 1.6 1.3 0 3.3-.9 3.3-.9l.6 1.4zm-7.9-9.9c-1-.2-3.1-.6-6-.6-8 0-10.9 2.4-10.9 5.6 0 3.3 2.9 4.7 6.8 4.7 5.8 0 9.3-4 10.1-4.9v-4.8zM593.7 354.2s-2.2 1.6-5.7 1.6c-3.1 0-4.4-1.4-4.4-5.1v-39.6l2.5-.7v40.2c0 2.1.8 3.2 2.6 3.2s4.5-1 4.5-1l.5 1.4zM660.7 354.3s-1.9 1.5-4.7 1.5c-2.5 0-3.2-1.4-3.2-3.6v-15.9c0-5.3-2-7.7-6.5-7.7-4.9 0-8.6 3.2-10.2 4.9.1.8.2 1.7.2 2.6v19.2h-2.5v-19.1c0-5.3-2.1-7.7-6.5-7.7-5.5 0-9.4 4-10.6 5.3v21.4h-2.5v-27.7l2.5-.7v4.8c1.1-1.2 5-5.3 11-5.3 4.2 0 7 1.7 8 5.4 1-1.2 4.9-5.4 11-5.4 5.7 0 8.6 3.1 8.6 9.7v16c0 1.1.3 1.6 1.4 1.6 1.3 0 3.4-.9 3.4-.9l.6 1.6zM676.8 356.3c-8.8 0-13.4-6.2-13.4-14.8 0-8.1 4.1-15.1 13.4-15.1 9.2 0 13.4 7 13.4 15.1 0 8.6-4.7 14.8-13.4 14.8zm10.9-14.8c0-6.7-3.1-12.9-10.9-12.9s-10.9 6.2-10.9 12.9c0 7.7 3.8 12.6 10.9 12.6 7 0 10.9-4.9 10.9-12.6zM743.8 354.3s-1.9 1.5-4.7 1.5c-2.5 0-3.2-1.4-3.2-3.6v-15.9c0-5.3-2-7.7-6.5-7.7-4.9 0-8.6 3.2-10.2 4.9.1.8.2 1.7.2 2.6v19.2h-2.5v-19.1c0-5.3-2.1-7.7-6.5-7.7-5.5 0-9.4 4-10.6 5.3v21.4h-2.5v-27.7l2.5-.7v4.8c1.1-1.2 5-5.3 11-5.3 4.2 0 7 1.7 8 5.4 1-1.2 4.9-5.4 11-5.4 5.7 0 8.6 3.1 8.6 9.7v16c0 1.1.3 1.6 1.4 1.6 1.3 0 3.4-.9 3.4-.9l.6 1.6zM748.9 342.3c.4 6.4 3.6 11.8 10.9 11.8 5.6 0 9.2-3.8 9.2-3.8l1 1.7s-4 4.2-10.3 4.2c-9.4 0-13.4-6.9-13.4-15.1 0-8.5 4.4-14.8 12.8-14.8 7.4 0 11.8 5.3 11.8 12.8 0 1.9-.4 3.1-.4 3.1h-21.6zm19.6-2.1l.1-1c.4-7-3.7-10.6-9.4-10.6-6.4 0-10 4.5-10.3 11.6h19.6zM805.4 354.3s-1.9 1.5-4.6 1.5c-2.5 0-3.2-1.4-3.2-3.6v-15.9c0-5.3-2.1-7.6-6.5-7.6-5.4 0-9.3 3.8-10.6 5.2v21.4H778v-27.7l2.5-.7v4.8c1.1-1.2 5-5.3 11-5.3 5.7 0 8.6 3.1 8.6 9.7v16c0 1.1.4 1.6 1.4 1.6 1.4 0 3.4-.9 3.4-.9l.5 1.5zM824.6 354.1s-2.2 2.2-6.7 2.2c-4.1 0-7-2.6-7-8.6v-18.3h-4.7l.7-2.2h4.1v-7.5l2.5-.9v8.4h9.3v2.2h-9.3v18.4c0 4.1 1.9 6.2 4.8 6.2 3.8 0 5.5-1.8 5.5-1.8l.8 1.9zM849.6 331.1s-3.2-2.5-9-2.5c-5.5 0-8.5 2.5-8.5 6.1 0 4 4.1 4.9 8.5 5.6 4.9.8 10.4 2.2 10.4 8 0 5-3.9 8-10.7 8-8 0-11.3-4-11.3-4l1-2s3.4 3.8 10.3 3.8c5.2 0 8.3-2.3 8.3-5.9 0-3.8-3.8-4.9-8.1-5.6-5-.9-10.7-1.9-10.7-8 0-4.1 3.1-8.2 11-8.2 6.7 0 10.1 2.7 10.1 2.7l-1.3 2z" class="st1"/></g></svg>